<?xml version="1.0" encoding="utf-8"?>
<!-- Generator: Adobe Illustrator 18.0.0, SVG Export Plug-In . SVG Version: 6.00 Build 0)  -->
<!DOCTYPE svg PUBLIC "-//W3C//DTD SVG 1.1//EN" "http://www.w3.org/Graphics/SVG/1.1/DTD/svg11.dtd">
<svg version="1.1" id="Layer_1" xmlns="http://www.w3.org/2000/svg" xmlns:xlink="http://www.w3.org/1999/xlink" x="0px" y="0px"
	 viewBox="0 0 1071 1536" enable-background="new 0 0 1071 1536" xml:space="preserve">
<g id="Bt_x5F_Play">
	<circle fill="none" stroke="#FFFFFF" stroke-width="12" stroke-miterlimit="10" cx="159.6" cy="209.3" r="82.8"/>
	<polygon fill="#FFFFFF" points="137.7,176.1 137.7,241.5 199.6,208.8 	"/>
</g>
<g id="Bt_x5F_Play_1_">
	<circle fill="none" stroke="#FFFFFF" stroke-width="12" stroke-miterlimit="10" cx="402" cy="207.5" r="82.8"/>
	<g>
		<rect x="375.3" y="171.6" fill="#FFFFFF" width="16.4" height="71.7"/>
		<rect x="412.3" y="171.6" fill="#FFFFFF" width="16.4" height="71.7"/>
	</g>
</g>
<path id="Home_x5F_icon" fill="#FFFFFF" d="M165.5,409.1l-65.4,15.3c-4.8,1.1-8.3,5.5-8.3,10.4v14.9h147.2v-14.9
	c0-5-3.4-9.3-8.3-10.4L165.5,409.1z M169.9,442.5c0,2.4-1.9,4.3-4.3,4.3h0c-2.4,0-4.3-1.9-4.3-4.3v-7.8c0-2.4,1.9-4.3,4.3-4.3h0
	c2.4,0,4.3,1.9,4.3,4.3V442.5z"/>
<g id="Place_x5F_label_x5F_selected">
	<path d="M730.2,1121.8v19.1H536.4v-58h193.9v22.2c9.7,4.2,18.6,8,19.9,8.4C751.5,1114,741.4,1117.9,730.2,1121.8z"/>
</g>
<g id="Sort_x5F_icon">
	<g>
		<circle fill="#FFFFFF" cx="108.2" cy="667.3" r="10"/>
		<circle fill="#FFFFFF" cx="108.2" cy="612.5" r="10"/>
		<circle fill="#FFFFFF" cx="108.2" cy="722.2" r="10"/>
		
			<line fill="none" stroke="#FFFFFF" stroke-width="10" stroke-linecap="round" stroke-miterlimit="10" x1="139.3" y1="612.8" x2="234.5" y2="612.8"/>
		
			<line fill="none" stroke="#FFFFFF" stroke-width="10" stroke-linecap="round" stroke-miterlimit="10" x1="139.3" y1="667.7" x2="234.5" y2="667.7"/>
		
			<line fill="none" stroke="#FFFFFF" stroke-width="10" stroke-linecap="round" stroke-miterlimit="10" x1="139.3" y1="722.6" x2="234.5" y2="722.6"/>
	</g>
</g>
<g id="Soundscape_x5F_icon">
	<g>
		<polygon fill="none" stroke="#FFFFFF" stroke-width="10" stroke-linejoin="round" stroke-miterlimit="10" points="397.5,613.3 
			397.5,742.6 344.2,709.9 302.1,709.9 302.1,649.9 344.2,649.9 		"/>
		<path fill="none" stroke="#FFFFFF" stroke-width="10" stroke-linecap="round" stroke-miterlimit="10" d="M435.2,625.1
			c19.1,30.1,17.9,71.8-3.1,100.7"/>
		<path fill="none" stroke="#FFFFFF" stroke-width="10" stroke-linecap="round" stroke-miterlimit="10" d="M463.7,612.5
			c19.1,37.6,17.9,89.8-3.1,125.9"/>
	</g>
</g>
<g id="App_x5F_icon">
	<g>
		<path fill="none" stroke="#FFFFFF" stroke-width="10" stroke-miterlimit="10" d="M857,767.4h-70.4c-9.1,0-16.5-7.4-16.5-16.5V605
			c0-9.1,7.4-16.5,16.5-16.5H857c9.1,0,16.5,7.4,16.5,16.5v145.9C873.5,760,866.1,767.4,857,767.4z"/>
		<path fill="#FFFFFF" d="M820.5,750.7h-0.9c-3.6,0-6.5-2.9-6.5-6.5l0,0c0-3.6,2.9-6.5,6.5-6.5h0.9c3.6,0,6.5,2.9,6.5,6.5l0,0
			C827,747.8,824,750.7,820.5,750.7z"/>
	</g>
</g>
<g id="Videochat_x5F_icon">
	<g>
		<path fill="none" stroke="#FFFFFF" stroke-width="10" stroke-miterlimit="10" d="M667.6,743.9c-13.3,8.5-30,7.7-43.3-0.4
			c-3.1,0.5-6.4,0.7-9.6,0.7c-37.1,0-67.2-30.1-67.2-67.2c0-3,0.2-5.9,0.6-8.8c-10.7-20.1-5.4-44.6,12.8-56.2
			c12.5-7.9,28-7.8,40.9-1c4.2-0.9,8.5-1.3,13-1.3c37.1,0,67.2,30.1,67.2,67.2c0,4-0.3,7.9-1,11.6
			C690.9,708.5,685.4,732.5,667.6,743.9z"/>
	</g>
	<circle fill="none" stroke="#FFFFFF" stroke-width="8" stroke-miterlimit="10" cx="614.3" cy="677.3" r="29"/>
</g>
<path fill="#FF0606" d="M998.1,696.1c20.1-15.2,19.8-21,19.9-25.9c0.2-5.8-4.7-10.5-10.5-10.5c-4.1,0-7.7,2.4-9.4,5.9H998
	c-1.7-3.5-5.3-5.9-9.4-5.9c-5.8,0-10.7,4.7-10.5,10.5c0.2,4.9-0.2,10.8,19.9,25.9H998.1z"/>
<g id="bt_x5F_CC">
	<path opacity="0.2" fill="#FFFFFF" d="M167.4,934.4h-45.9c-6.4,0-11.6-5.2-11.6-11.6V898c0-6.4,5.2-11.6,11.6-11.6h45.9
		c6.4,0,11.6,5.2,11.6,11.6v24.9C178.9,929.3,173.7,934.4,167.4,934.4z"/>
	<g>
		<g>
			<path fill="#FFFFFF" d="M140.5,918.5c0.3,0.7,0.6,1.4,0.8,2.1c0.2,0.7,0.4,1.4,0.5,2.1c-1.2,0.5-2.4,0.8-3.4,0.9
				c-1,0.1-2.1,0.2-3.2,0.2c-2,0-3.8-0.3-5.4-1c-1.5-0.7-2.8-1.6-3.9-2.8c-1-1.2-1.8-2.6-2.4-4.2c-0.5-1.6-0.8-3.4-0.8-5.3
				s0.3-3.7,0.8-5.3c0.6-1.6,1.3-3.1,2.4-4.3s2.3-2.1,3.9-2.8c1.5-0.7,3.3-1,5.2-1c1.2,0,2.2,0.1,3.2,0.2c1,0.1,2,0.4,3.2,0.9
				c0,0.7-0.2,1.4-0.4,2.1c-0.2,0.7-0.5,1.4-0.8,2.1c-0.8-0.3-1.6-0.5-2.2-0.6c-0.6-0.1-1.4-0.2-2.3-0.2c-2.3,0-4.1,0.8-5.3,2.2
				c-1.2,1.5-1.9,3.7-1.9,6.7c0,5.9,2.5,8.8,7.5,8.8c0.9,0,1.7-0.1,2.3-0.2S139.7,918.8,140.5,918.5z"/>
			<path fill="#FFFFFF" d="M161.7,918.5c0.3,0.7,0.6,1.4,0.8,2.1c0.2,0.7,0.4,1.4,0.5,2.1c-1.2,0.5-2.4,0.8-3.4,0.9
				c-1,0.1-2.1,0.2-3.2,0.2c-2,0-3.8-0.3-5.4-1c-1.5-0.7-2.8-1.6-3.9-2.8c-1-1.2-1.8-2.6-2.4-4.2c-0.5-1.6-0.8-3.4-0.8-5.3
				s0.3-3.7,0.8-5.3c0.6-1.6,1.3-3.1,2.4-4.3s2.3-2.1,3.9-2.8c1.5-0.7,3.3-1,5.2-1c1.2,0,2.2,0.1,3.2,0.2c1,0.1,2,0.4,3.2,0.9
				c0,0.7-0.2,1.4-0.4,2.1c-0.2,0.7-0.5,1.4-0.8,2.1c-0.8-0.3-1.6-0.5-2.2-0.6c-0.6-0.1-1.4-0.2-2.3-0.2c-2.3,0-4.1,0.8-5.3,2.2
				c-1.2,1.5-1.9,3.7-1.9,6.7c0,5.9,2.5,8.8,7.5,8.8c0.9,0,1.7-0.1,2.3-0.2S160.9,918.8,161.7,918.5z"/>
		</g>
	</g>
</g>
<g>
	<rect x="235.7" y="900.2" fill="none" stroke="#FFFFFF" stroke-width="4" stroke-miterlimit="10" width="31.2" height="20.6"/>
	<line fill="none" stroke="#FFFFFF" stroke-width="4" stroke-miterlimit="10" x1="235.7" y1="900.2" x2="266.9" y2="920.7"/>
</g>
<path fill="#FFFFFF" d="M368.3,919.8c0-0.2,0-0.3,0-0.5s0-0.3,0-0.5v-21.8H368h-2.2h-19.5h-2.4v5.9v12.7c-0.5-0.2-1.1-0.4-1.7-0.4
	c-2.4,0-4.3,1.9-4.3,4.3s1.9,4.3,4.3,4.3s4.3-1.9,4.3-4.3c0-0.3,0-0.6-0.1-0.9V903h19.5v12.5c-0.5-0.3-1.1-0.4-1.8-0.4
	c-2.4,0-4.3,1.9-4.3,4.3s1.9,4.3,4.3,4.3c2.1,0,3.9-1.6,4.2-3.6h0V919.8z"/>
<g>
	<rect x="420.4" y="900.2" fill="none" stroke="#FFFFFF" stroke-width="2" stroke-miterlimit="10" width="31.2" height="20.6"/>
</g>
<g>
	<rect x="416.3" y="900.2" fill="none" stroke="#FFFFFF" stroke-width="3" stroke-miterlimit="10" width="31.2" height="20.6"/>
	<path fill="none" stroke="#FFFFFF" stroke-width="4" stroke-miterlimit="10" d="M447.5,920.7"/>
	<path fill="none" stroke="#FFFFFF" stroke-width="4" stroke-miterlimit="10" d="M416.3,900.2"/>
</g>
<g>
	<rect x="500.5" y="885.1" opacity="0.2" fill="#FFFFFF" width="60" height="50.7"/>
	
		<polyline fill="none" stroke="#FFFFFF" stroke-width="6" stroke-linecap="round" stroke-linejoin="round" stroke-miterlimit="10" points="
		535.2,894.5 522.1,908.9 535.2,926.4 	"/>
</g>
<g>
	<rect x="575.8" y="885.1" opacity="0.2" fill="#FFFFFF" width="60" height="50.7"/>
	
		<polyline fill="none" stroke="#FFFFFF" stroke-width="6" stroke-linecap="round" stroke-linejoin="round" stroke-miterlimit="10" points="
		601.1,896 614.1,910.4 601.1,927.9 	"/>
</g>
<g>
	<rect x="669.6" y="886.6" fill="#FF0606" width="60" height="50.7"/>
	
		<polyline fill="none" stroke="#FFFFFF" stroke-width="6" stroke-linecap="round" stroke-linejoin="round" stroke-miterlimit="10" points="
		704.3,896 691.2,910.4 704.3,927.9 	"/>
</g>
<g>
	<rect x="744.9" y="886.6" fill="#FF0606" width="60" height="50.7"/>
	
		<polyline fill="none" stroke="#FFFFFF" stroke-width="6" stroke-linecap="round" stroke-linejoin="round" stroke-miterlimit="10" points="
		770.2,897.6 783.2,912 770.2,929.4 	"/>
</g>
<g>
	<circle fill="none" stroke="#FFFFFF" stroke-width="4" stroke-miterlimit="10" cx="863.1" cy="910.4" r="24"/>
	<line fill="none" stroke="#FFFFFF" stroke-width="3" stroke-miterlimit="10" x1="839.1" y1="910.4" x2="886.5" y2="910.4"/>
	<path fill="none" stroke="#FFFFFF" stroke-width="3" stroke-miterlimit="10" d="M845.5,926.1c5-2.7,10.7-4.3,16.7-4.3
		c6.4,0,12.3,1.7,17.4,4.7"/>
	<path id="SVGID_x5F_1_x5F_" fill="none" stroke="#FFFFFF" stroke-width="3" stroke-miterlimit="10" d="M845.5,894.3
		c5,2.7,10.7,4.3,16.7,4.3c6.4,0,12.3-1.7,17.4-4.7"/>
	<text>	<textPath  xlink:href="#SVGID_x5F_1_x5F_" startOffset="0%">
	</textPath>
</text>
	<line fill="none" stroke="#FFFFFF" stroke-width="3" stroke-miterlimit="10" x1="863.1" y1="886.4" x2="863.1" y2="934.4"/>
</g>
<g>
	
		<polyline fill="none" stroke="#FFFFFF" stroke-width="6" stroke-linecap="round" stroke-linejoin="round" stroke-miterlimit="10" points="
		930.6,889 911,910.7 930.6,937 	"/>
</g>
<g>
	
		<polyline fill="none" stroke="#FFFFFF" stroke-width="6" stroke-linecap="round" stroke-linejoin="round" stroke-miterlimit="10" points="
		963.2,889 982.9,910.7 963.2,937 	"/>
</g>
<g>
	<rect x="352.2" y="400.3" fill="#FFFFFF" width="53.2" height="10"/>
	<rect x="352.2" y="424.5" fill="#FFFFFF" width="53.2" height="10"/>
	<rect x="352.2" y="448.6" fill="#FFFFFF" width="53.2" height="10"/>
</g>
<g>
	<circle fill="none" stroke="#FFFFFF" stroke-width="8" stroke-miterlimit="10" cx="454" cy="1110.3" r="38.8"/>
	<g>
		
			<rect x="449.5" y="1086.9" transform="matrix(-0.7071 -0.7071 0.7071 -0.7071 -11.0692 2216.0491)" fill="#FFFFFF" width="7.9" height="46.8"/>
		
			<rect x="449.5" y="1086.9" transform="matrix(-0.7071 0.7071 -0.7071 -0.7071 1559.1562 1574.8104)" fill="#FFFFFF" width="7.9" height="46.8"/>
	</g>
</g>
<g>
	<rect x="250.8" y="1079.5" opacity="0.5" fill="#FFFFFF" width="60" height="60"/>
	<rect x="265.8" y="1106.1" fill="#FFFFFF" width="30" height="5"/>
</g>
<g>
	<rect x="329.6" y="1079.5" fill="#FF0606" width="60" height="60"/>
	<rect x="344.6" y="1106.1" fill="#FFFFFF" width="30" height="5"/>
</g>
<g>
	<rect x="88.2" y="1077.8" opacity="0.5" fill="#FFFFFF" width="60" height="60"/>
	<rect x="103.2" y="1105.3" fill="#FFFFFF" width="30" height="5"/>
	<rect x="115.7" y="1092.8" fill="#FFFFFF" width="5" height="30"/>
</g>
<g>
	<rect x="166.7" y="1077.8" fill="#FF0606" width="60" height="60"/>
	<rect x="181.7" y="1105.3" fill="#FFFFFF" width="30" height="5"/>
	<rect x="194.2" y="1092.8" fill="#FFFFFF" width="5" height="30"/>
</g>
<g id="bt_x5F_add">
	<circle fill="#47D0BC" cx="121.9" cy="1248.9" r="37.1"/>
	<rect x="118.2" y="1229.8" fill="#FFFFFF" width="5.7" height="39.6"/>
	<rect x="101.3" y="1246.7" fill="#FFFFFF" width="39.6" height="5.7"/>
</g>
<g id="bt_x5F_remove">
	<circle fill="#47D0BC" cx="220.5" cy="1246.7" r="36.3"/>
	<rect x="201" y="1243.7" fill="#FFFFFF" width="40.2" height="5.4"/>
</g>
<g id="Bt_x5F_add_x5F_caller">
	<circle opacity="0.54" fill="#FFFFFF" cx="117.5" cy="1364.4" r="45"/>
	<path fill="#FFFFFF" d="M144.7,1360.4v11.5c0,1.6-1.5,2.8-3,2.4l-8.9-2.1v2c0,1.9-2,3.5-4.5,3.5H98.9c-2.5,0-4.5-1.6-4.5-3.5v-16.1
		c0-1.9,2-3.5,4.5-3.5h29.4c2.5,0,4.5,1.6,4.5,3.5v2.7l8.8-2.8C143.1,1357.5,144.7,1358.7,144.7,1360.4z"/>
</g>
<g id="Bt_x5F_video">
	<circle opacity="0.54" fill="#FFFFFF" cx="240.3" cy="1364.4" r="45"/>
	<g>
		<defs>
			<polyline id="SVGID_2_" points="216.5,1345.6 258.9,1345.6 258.9,1395.1 216.5,1395.1 			"/>
		</defs>
		<clipPath id="SVGID_3_">
			<use xlink:href="#SVGID_2_"  overflow="visible"/>
		</clipPath>
		<g clip-path="url(#SVGID_3_)" enable-background="new    ">
			<g>
				<defs>
					<rect id="SVGID_4_" x="216.5" y="1345.6" width="42.4" height="49.5"/>
				</defs>
				<clipPath id="SVGID_5_">
					<use xlink:href="#SVGID_4_"  overflow="visible"/>
				</clipPath>
				<g clip-path="url(#SVGID_5_)">
					<defs>
						<path id="SVGID_6_" d="M237.7,1345.6c6.9,0,12.4,6.2,12.4,13.8c0,4.3-1.8,8.1-4.5,10.6c-0.8,0.8-1.6,1.9-1.6,3.2
							c0,1.7,1.6,3.4,3.2,4.1c4.8,1.8,11.8,1.3,11.8,8.9v9h-42.4v-9c0-7.6,7.1-7.1,11.8-8.9c1.5-0.7,3.2-2.3,3.2-4.1
							c0-1.2-0.8-2.4-1.6-3.2c-2.8-2.5-4.5-6.4-4.5-10.6C225.2,1351.8,230.8,1345.6,237.7,1345.6"/>
					</defs>
					<clipPath id="SVGID_7_">
						<use xlink:href="#SVGID_6_"  overflow="visible"/>
					</clipPath>
					<g clip-path="url(#SVGID_7_)">
						<defs>
							<rect id="SVGID_8_" x="216.5" y="1345.6" width="42.4" height="49.5"/>
						</defs>
						<clipPath id="SVGID_9_">
							<use xlink:href="#SVGID_8_"  overflow="visible"/>
						</clipPath>
						
							<rect x="204.7" y="1333.8" clip-path="url(#SVGID_9_)" fill-rule="evenodd" clip-rule="evenodd" fill="#FEFEFE" width="66" height="73.1"/>
					</g>
				</g>
			</g>
		</g>
	</g>
	<g>
		
			<line fill="none" stroke="#FFFFFF" stroke-width="5" stroke-linecap="round" stroke-miterlimit="10" x1="262.8" y1="1336.8" x2="262.8" y2="1354.7"/>
		
			<line fill="none" stroke="#FFFFFF" stroke-width="5" stroke-linecap="round" stroke-miterlimit="10" x1="254.8" y1="1346" x2="270.7" y2="1346"/>
	</g>
</g>
<g>
	<line fill="none" stroke="#FFFFFF" stroke-width="2" stroke-miterlimit="10" x1="508.7" y1="428.9" x2="987.2" y2="428.9"/>
	<circle fill="#FFFFFF" cx="647.8" cy="429.5" r="11.7"/>
</g>
<path fill="#FFFFFF" d="M708.7,251.3l-59.9-14v-25.4c0-3-2.5-5.5-5.5-5.5c-3,0-5.5,2.5-5.5,5.5v25.5l-59.7,14
	c-4.8,1.1-8.3,5.5-8.3,10.4v14.9h147.2v-14.9C716.9,256.8,713.5,252.5,708.7,251.3z M647.6,269.4c0,2.4-1.9,4.3-4.3,4.3
	s-4.3-1.9-4.3-4.3v-7.8c0-2.4,1.9-4.3,4.3-4.3s4.3,1.9,4.3,4.3V269.4z"/>
</svg>
